STARTFONT 2.1
FONT -FontForge-IBM Plex Mono Medium-Medium-R-Normal--24-240-75-75-P-132-ISO10646-1
SIZE 24 75 75
FONTBOUNDINGBOX 14 25 0 -6
COMMENT "Generated by fontforge, http://fontforge.sourceforge.net"
COMMENT "Copyright 2017 IBM Corp. All rights reserved."
COMMENT "Tuned for Matrix clock by John Park"
STARTPROPERTIES 41
FOUNDRY "FontForge"
FAMILY_NAME "IBM Plex Mono Medium"
WEIGHT_NAME "Medium"
SLANT "R"
SETWIDTH_NAME "Normal"
ADD_STYLE_NAME ""
PIXEL_SIZE 24
POINT_SIZE 240
RESOLUTION_X 75
RESOLUTION_Y 75
SPACING "P"
AVERAGE_WIDTH 132
CHARSET_REGISTRY "ISO10646"
CHARSET_ENCODING "1"
FONTNAME_REGISTRY ""
CHARSET_COLLECTIONS "ISO8859-2 ISO8859-5 ISO8859-9 ISO8859-4 ISO10646-1"
FONT_NAME "IBMPlexMono-Medium"
FACE_NAME "IBM Plex Mono Medium"
COPYRIGHT "Copyright 2017 IBM Corp. All rights reserved."
FONT_VERSION "2.000"
FONT_ASCENT 19
FONT_DESCENT 5
UNDERLINE_POSITION -4
UNDERLINE_THICKNESS 2
X_HEIGHT 11
CAP_HEIGHT 16
DEFAULT_CHAR 1
RAW_ASCENT 780
RAW_DESCENT 220
NORM_SPACE 14
RELATIVE_WEIGHT 50
RELATIVE_SETWIDTH 50
SUPERSCRIPT_X 0
SUPERSCRIPT_Y 8
SUPERSCRIPT_SIZE 14
SUBSCRIPT_X 0
SUBSCRIPT_Y 1
SUBSCRIPT_SIZE 14
FIGURE_WIDTH 14
AVG_LOWERCASE_WIDTH 140
AVG_UPPERCASE_WIDTH 140
ENDPROPERTIES
CHARS 104
STARTCHAR .null.dup1
ENCODING 0
SWIDTH 0 0
DWIDTH 0 0
BBX 1 1 0 0
BITMAP
00
ENDCHAR
STARTCHAR uni000D
ENCODING 13
SWIDTH 600 0
DWIDTH 14 0
BBX 1 1 0 0
BITMAP
00
ENDCHAR
STARTCHAR space
ENCODING 32
SWIDTH 600 0
DWIDTH 8 0
BBX 1 1 0 0
BITMAP
00
ENDCHAR
STARTCHAR exclam
ENCODING 33
SWIDTH 600 0
DWIDTH 14 0
BBX 4 17 5 0
BITMAP
60
60
60
60
60
60
60
60
60
60
00
00
00
F0
F0
F0
F0
ENDCHAR
STARTCHAR quotedbl
ENCODING 34
SWIDTH 600 0
DWIDTH 14 0
BBX 8 7 3 11
BITMAP
E7
E7
E7
E7
E7
E7
E7
ENDCHAR
STARTCHAR numbersign
ENCODING 35
SWIDTH 600 0
DWIDTH 14 0
BBX 14 17 0 0
BITMAP
0630
0670
0660
0660
0E60
7FFC
7FFC
0CE0
0CC0
1CC0
FFF8
FFF8
19C0
19C0
1980
3980
3180
ENDCHAR
STARTCHAR dollar
ENCODING 36
SWIDTH 600 0
DWIDTH 14 0
BBX 12 21 1 -2
BITMAP
0600
0600
1F80
3FE0
7670
6620
E600
E600
7600
7F00
1FC0
07F0
0670
0630
0630
4670
F6F0
7FE0
1F80
0600
0600
ENDCHAR
STARTCHAR percent
ENCODING 37
SWIDTH 600 0
DWIDTH 14 0
BBX 12 17 1 0
BITMAP
7810
CC20
8420
8440
CC80
7880
0100
0200
0200
0400
0800
11E0
1330
2210
4210
4330
81E0
ENDCHAR
STARTCHAR ampersand
ENCODING 38
SWIDTH 600 0
DWIDTH 14 0
BBX 14 17 0 0
BITMAP
0F00
1FC0
38C0
30C0
30C0
31C0
3B80
1F00
3E38
7738
6330
E3E0
E1E0
E0E0
71F0
7F38
1E3C
ENDCHAR
STARTCHAR quotesingle
ENCODING 39
SWIDTH 600 0
DWIDTH 14 0
BBX 2 7 6 11
BITMAP
C0
C0
C0
C0
C0
C0
C0
ENDCHAR
STARTCHAR parenleft
ENCODING 40
SWIDTH 600 0
DWIDTH 14 0
BBX 8 21 4 -3
BITMAP
07
0C
18
38
30
70
60
60
60
E0
E0
E0
60
60
60
70
30
38
18
0C
07
ENDCHAR
STARTCHAR parenright
ENCODING 41
SWIDTH 600 0
DWIDTH 14 0
BBX 8 21 2 -3
BITMAP
E0
30
18
1C
0C
0E
06
06
06
07
07
07
06
06
06
0E
0C
1C
18
30
E0
ENDCHAR
STARTCHAR asterisk
ENCODING 42
SWIDTH 600 0
DWIDTH 14 0
BBX 12 12 1 1
BITMAP
0600
0600
0600
8610
F6F0
FFF0
1F80
0F00
1F80
39C0
70C0
30E0
ENDCHAR
STARTCHAR plus
ENCODING 43
SWIDTH 600 0
DWIDTH 14 0
BBX 12 12 1 1
BITMAP
0600
0600
0600
0600
0600
FFF0
FFF0
0600
0600
0600
0600
0600
ENDCHAR
STARTCHAR comma
ENCODING 44
SWIDTH 600 0
DWIDTH 14 0
BBX 5 7 4 -3
BITMAP
38
78
70
70
60
60
E0
ENDCHAR
STARTCHAR hyphen
ENCODING 45
SWIDTH 600 0
DWIDTH 14 0
BBX 8 2 3 6
BITMAP
FF
FF
ENDCHAR
STARTCHAR period
ENCODING 46
SWIDTH 600 0
DWIDTH 14 0
BBX 4 4 5 0
BITMAP
F0
F0
F0
F0
ENDCHAR
STARTCHAR slash
ENCODING 47
SWIDTH 600 0
DWIDTH 14 0
BBX 10 21 2 -3
BITMAP
00C0
01C0
0180
0180
0380
0300
0700
0600
0600
0E00
0C00
0C00
1800
1800
3800
3000
3000
7000
6000
E000
C000
ENDCHAR
STARTCHAR zero
ENCODING 48
SWIDTH 600 0
DWIDTH 14 0
BBX 12 17 1 0
BITMAP
1F80
3FC0
70E0
6060
E070
E070
E070
E070
E070
E070
E070
E070
E070
6060
70E0
3FC0
1F80
ENDCHAR
STARTCHAR one
ENCODING 49
SWIDTH 600 0
DWIDTH 14 0
BBX 12 17 1 0
BITMAP
0F00
1F00
3B00
7300
E300
6300
4300
0300
0300
0300
0300
0300
0300
0300
0300
7FF0
7FF0
ENDCHAR
STARTCHAR two
ENCODING 50
SWIDTH 600 0
DWIDTH 14 0
BBX 12 17 1 0
BITMAP
1F00
7FC0
71E0
E0E0
20E0
00E0
00E0
00E0
01C0
0380
0700
0E00
1C00
7800
F000
FFF0
FFF0
ENDCHAR
STARTCHAR three
ENCODING 51
SWIDTH 600 0
DWIDTH 14 0
BBX 12 17 1 0
BITMAP
1F80
7FC0
F1E0
20E0
00E0
00E0
01C0
0F80
0F80
00E0
00E0
0070
0070
40E0
E0E0
7FC0
1F00
ENDCHAR
STARTCHAR four
ENCODING 52
SWIDTH 600 0
DWIDTH 14 0
BBX 13 17 0 0
BITMAP
01E0
01E0
03E0
07E0
06E0
0EE0
0CE0
18E0
38E0
30E0
70E0
60E0
FFF8
FFF8
00E0
00E0
00E0
ENDCHAR
STARTCHAR five
ENCODING 53
SWIDTH 600 0
DWIDTH 14 0
BBX 12 17 1 0
BITMAP
7FE0
7FE0
6000
6000
6000
6000
6780
6FE0
70E0
0070
0070
0070
0070
6070
F0E0
7FC0
1F80
ENDCHAR
STARTCHAR six
ENCODING 54
SWIDTH 600 0
DWIDTH 14 0
BBX 12 17 1 0
BITMAP
07C0
0F00
1E00
3C00
3800
7000
7780
EFE0
F0E0
E070
E070
E070
E070
6070
70E0
3FC0
1F80
ENDCHAR
STARTCHAR seven
ENCODING 55
SWIDTH 600 0
DWIDTH 14 0
BBX 12 17 1 0
BITMAP
FFF0
FFF0
E070
E0E0
E0E0
00C0
01C0
01C0
0380
0380
0300
0700
0700
0E00
0E00
1C00
1C00
ENDCHAR
STARTCHAR eight
ENCODING 56
SWIDTH 600 0
DWIDTH 14 0
BBX 12 17 1 0
BITMAP
1F80
7FE0
70E0
E070
E070
6060
70E0
1F80
3FC0
70E0
E070
E070
E070
E070
70E0
7FE0
1F80
ENDCHAR
STARTCHAR nine
ENCODING 57
SWIDTH 600 0
DWIDTH 14 0
BBX 12 17 1 0
BITMAP
1F80
3FC0
70E0
E060
E070
E070
E070
E070
70F0
7F70
1EE0
00E0
01C0
03C0
0780
0F00
3E00
ENDCHAR
STARTCHAR colon
ENCODING 58
SWIDTH 600 0
DWIDTH 8 0
BBX 4 13 2 0
BITMAP
F0
F0
F0
F0
00
00
00
00
00
F0
F0
F0
F0
ENDCHAR
STARTCHAR semicolon
ENCODING 59
SWIDTH 600 0
DWIDTH 14 0
BBX 5 16 4 -3
BITMAP
78
78
78
78
00
00
00
00
00
38
78
70
70
60
60
E0
ENDCHAR
STARTCHAR less
ENCODING 60
SWIDTH 600 0
DWIDTH 14 0
BBX 10 14 2 0
BITMAP
0040
00C0
03C0
0F00
3E00
F800
E000
E000
F800
3E00
0F80
03C0
00C0
0040
ENDCHAR
STARTCHAR equal
ENCODING 61
SWIDTH 600 0
DWIDTH 14 0
BBX 12 7 1 4
BITMAP
FFF0
FFF0
0000
0000
0000
FFF0
FFF0
ENDCHAR
STARTCHAR greater
ENCODING 62
SWIDTH 600 0
DWIDTH 14 0
BBX 10 14 2 0
BITMAP
8000
C000
F000
7C00
1F00
07C0
01C0
01C0
07C0
1F00
3C00
F000
C000
8000
ENDCHAR
STARTCHAR question
ENCODING 63
SWIDTH 600 0
DWIDTH 14 0
BBX 11 17 1 0
BITMAP
1F80
3FC0
70E0
60E0
A0E0
00E0
00E0
0FC0
0F00
0E00
0E00
0000
0000
0E00
0F00
0F00
0E00
ENDCHAR
STARTCHAR at
ENCODING 64
SWIDTH 600 0
DWIDTH 14 0
BBX 12 20 1 -3
BITMAP
1F80
3FC0
70E0
6060
6070
C3B0
C7B0
CE70
CC30
CC30
CC30
CC30
CC70
C7B0
C7B0
6000
6000
3800
3FC0
0FC0
ENDCHAR
STARTCHAR A
ENCODING 65
SWIDTH 600 0
DWIDTH 14 0
BBX 14 17 0 0
BITMAP
0780
0780
0FC0
0FC0
0CC0
0CC0
1CE0
1CE0
1860
3870
3FF0
3FF0
3030
7038
7038
6018
E01C
ENDCHAR
STARTCHAR B
ENCODING 66
SWIDTH 600 0
DWIDTH 14 0
BBX 11 17 2 0
BITMAP
FF00
FF80
C1C0
C0C0
C0C0
C0C0
C1C0
FF00
FF80
C1C0
C0E0
C0E0
C0E0
C0E0
C1C0
FFC0
FF00
ENDCHAR
STARTCHAR C
ENCODING 67
SWIDTH 600 0
DWIDTH 14 0
BBX 12 17 1 0
BITMAP
0F80
3FE0
38E0
7070
6040
E000
E000
E000
E000
E000
E000
E000
6040
7070
78E0
3FE0
0F80
ENDCHAR
STARTCHAR D
ENCODING 68
SWIDTH 600 0
DWIDTH 14 0
BBX 11 17 2 0
BITMAP
FE00
FF80
C3C0
C1C0
C0E0
C0E0
C0E0
C0E0
C0E0
C0E0
C0E0
C0E0
C0E0
C1C0
C3C0
FF80
FE00
ENDCHAR
STARTCHAR E
ENCODING 69
SWIDTH 600 0
DWIDTH 14 0
BBX 10 17 2 0
BITMAP
FFC0
FFC0
E000
E000
E000
E000
E000
FFC0
FFC0
E000
E000
E000
E000
E000
E000
FFC0
FFC0
ENDCHAR
STARTCHAR F
ENCODING 70
SWIDTH 600 0
DWIDTH 14 0
BBX 11 17 2 0
BITMAP
FFE0
FFE0
E000
E000
E000
E000
E000
FFC0
FFC0
E000
E000
E000
E000
E000
E000
E000
E000
ENDCHAR
STARTCHAR G
ENCODING 71
SWIDTH 600 0
DWIDTH 14 0
BBX 12 17 1 0
BITMAP
0F80
3FC0
70E0
7060
E050
E000
E000
E000
E3F0
E3F0
E070
E070
E070
6070
70F0
3F70
1E70
ENDCHAR
STARTCHAR H
ENCODING 72
SWIDTH 600 0
DWIDTH 14 0
BBX 11 17 2 0
BITMAP
C0E0
C0E0
C0E0
C0E0
C0E0
C0E0
C0E0
FFE0
FFE0
C0E0
C0E0
C0E0
C0E0
C0E0
C0E0
C0E0
C0E0
ENDCHAR
STARTCHAR I
ENCODING 73
SWIDTH 600 0
DWIDTH 14 0
BBX 10 17 2 0
BITMAP
FFC0
FFC0
0C00
0C00
0C00
0C00
0C00
0C00
0C00
0C00
0C00
0C00
0C00
0C00
0C00
FFC0
FFC0
ENDCHAR
STARTCHAR J
ENCODING 74
SWIDTH 600 0
DWIDTH 14 0
BBX 11 17 1 0
BITMAP
3FE0
3FE0
00E0
00E0
00E0
00E0
00E0
00E0
00E0
00E0
00E0
00E0
00E0
E0E0
71C0
7F80
1F00
ENDCHAR
STARTCHAR K
ENCODING 75
SWIDTH 600 0
DWIDTH 14 0
BBX 12 17 2 0
BITMAP
C0F0
C1E0
C1C0
C380
C700
CF00
CE00
DC00
FE00
FF00
F700
E380
C380
C1C0
C1C0
C0E0
C070
ENDCHAR
STARTCHAR L
ENCODING 76
SWIDTH 600 0
DWIDTH 14 0
BBX 11 17 2 0
BITMAP
E000
E000
E000
E000
E000
E000
E000
E000
E000
E000
E000
E000
E000
E000
E000
FFE0
FFE0
ENDCHAR
STARTCHAR M
ENCODING 77
SWIDTH 600 0
DWIDTH 14 0
BBX 12 17 1 0
BITMAP
F070
F0F0
F0F0
F8F0
D9B0
D9B0
CF70
CF70
EF70
E670
E670
E670
E470
E070
E070
E070
E070
ENDCHAR
STARTCHAR N
ENCODING 78
SWIDTH 600 0
DWIDTH 14 0
BBX 11 17 1 0
BITMAP
F060
F060
F860
F860
FC60
EC60
EC60
EE60
E660
E660
E360
E360
E3E0
E1E0
E1E0
E1E0
E0E0
ENDCHAR
STARTCHAR O
ENCODING 79
SWIDTH 600 0
DWIDTH 14 0
BBX 12 17 1 0
BITMAP
1F80
3FC0
70E0
6060
E070
E070
E070
E070
E070
E070
E070
E070
E070
6060
70E0
3FC0
1F80
ENDCHAR
STARTCHAR P
ENCODING 80
SWIDTH 600 0
DWIDTH 14 0
BBX 11 17 2 0
BITMAP
FF80
FFC0
C1C0
C0E0
C0E0
C0E0
C0E0
C1C0
FFC0
FF00
C000
C000
C000
C000
C000
C000
C000
ENDCHAR
STARTCHAR Q
ENCODING 81
SWIDTH 600 0
DWIDTH 14 0
BBX 12 21 1 -4
BITMAP
1F80
3FC0
70E0
6060
E070
E070
E070
E070
E070
E070
E070
E070
E070
6060
70E0
3FC0
1F80
0600
0600
07E0
03E0
ENDCHAR
STARTCHAR R
ENCODING 82
SWIDTH 600 0
DWIDTH 14 0
BBX 11 17 2 0
BITMAP
FF80
FFC0
E1E0
E0E0
E0E0
E0E0
E0E0
E1E0
FFC0
FF00
E700
E700
E380
E180
E1C0
E0C0
E0E0
ENDCHAR
STARTCHAR S
ENCODING 83
SWIDTH 600 0
DWIDTH 14 0
BBX 12 17 1 0
BITMAP
1F80
3FE0
70F0
E040
E000
E000
7000
7F00
3FC0
03E0
0070
0070
0070
4070
F0E0
7FE0
1F80
ENDCHAR
STARTCHAR T
ENCODING 84
SWIDTH 600 0
DWIDTH 14 0
BBX 14 17 0 0
BITMAP
FFFC
FFFC
0300
0300
0300
0300
0300
0300
0300
0300
0300
0300
0300
0300
0300
0300
0300
ENDCHAR
STARTCHAR U
ENCODING 85
SWIDTH 600 0
DWIDTH 14 0
BBX 12 17 1 0
BITMAP
E070
E070
E070
E070
E070
E070
E070
E070
E070
E070
E070
6060
6060
6060
70E0
3FC0
1F80
ENDCHAR
STARTCHAR V
ENCODING 86
SWIDTH 600 0
DWIDTH 14 0
BBX 14 17 0 0
BITMAP
E01C
7038
7038
7038
3030
3870
3870
3870
1C60
1CE0
1CE0
0CC0
0EC0
0FC0
0FC0
0780
0780
ENDCHAR
STARTCHAR W
ENCODING 87
SWIDTH 600 0
DWIDTH 14 0
BBX 14 17 0 0
BITMAP
E01C
601C
6018
6018
6318
6798
6798
6798
6798
6698
6CD8
6CD8
6CD8
7CF8
7CF8
7878
3870
ENDCHAR
STARTCHAR X
ENCODING 88
SWIDTH 600 0
DWIDTH 14 0
BBX 14 17 0 0
BITMAP
703C
7038
3870
1C60
1CE0
0EC0
0FC0
0780
0780
0780
0FC0
1CE0
1CE0
3870
3870
7038
E03C
ENDCHAR
STARTCHAR Y
ENCODING 89
SWIDTH 600 0
DWIDTH 14 0
BBX 14 17 0 0
BITMAP
E01C
7038
7038
3870
3870
1CE0
1CE0
0FC0
0780
0780
0300
0300
0300
0300
0300
0300
0300
ENDCHAR
STARTCHAR Z
ENCODING 90
SWIDTH 600 0
DWIDTH 14 0
BBX 12 17 1 0
BITMAP
FFF0
FFF0
00E0
00E0
01C0
0380
0380
0700
0E00
0E00
1C00
3800
7800
7000
E000
FFF0
FFF0
ENDCHAR
STARTCHAR bracketleft
ENCODING 91
SWIDTH 600 0
DWIDTH 14 0
BBX 7 21 5 -3
BITMAP
FE
FE
C0
C0
C0
C0
C0
C0
C0
C0
C0
C0
C0
C0
C0
C0
C0
C0
C0
FE
FE
ENDCHAR
STARTCHAR backslash
ENCODING 92
SWIDTH 600 0
DWIDTH 14 0
BBX 10 21 2 -3
BITMAP
C000
E000
6000
6000
7000
3000
3800
1800
1800
1C00
0C00
0C00
0600
0600
0700
0300
0300
0380
0180
01C0
00C0
ENDCHAR
STARTCHAR bracketright
ENCODING 93
SWIDTH 600 0
DWIDTH 14 0
BBX 7 21 2 -3
BITMAP
FE
FE
06
06
06
06
06
06
06
06
06
06
06
06
06
06
06
06
06
FE
FE
ENDCHAR
STARTCHAR asciicircum
ENCODING 94
SWIDTH 600 0
DWIDTH 14 0
BBX 12 10 1 7
BITMAP
0F00
0F00
1F80
1980
39C0
30C0
70E0
6060
E070
C030
ENDCHAR
STARTCHAR underscore
ENCODING 95
SWIDTH 600 0
DWIDTH 14 0
BBX 12 2 1 -4
BITMAP
FFF0
FFF0
ENDCHAR
STARTCHAR grave
ENCODING 96
SWIDTH 600 0
DWIDTH 14 0
BBX 4 5 4 14
BITMAP
40
E0
60
30
30
ENDCHAR
STARTCHAR a
ENCODING 97
SWIDTH 600 0
DWIDTH 14 0
BBX 12 12 1 0
BITMAP
1F00
7FC0
61C0
40E0
00E0
3FE0
7FE0
E0E0
E0E0
E1E0
7FF0
3E70
ENDCHAR
STARTCHAR b
ENCODING 98
SWIDTH 600 0
DWIDTH 14 0
BBX 11 18 2 0
BITMAP
C000
C000
C000
C000
C000
C000
CF00
DFC0
E1C0
C0E0
C0E0
C0E0
C0E0
C0E0
C0E0
E1C0
DFC0
CF00
ENDCHAR
STARTCHAR c
ENCODING 99
SWIDTH 600 0
DWIDTH 14 0
BBX 10 12 2 0
BITMAP
1F00
7F80
F1C0
E080
C000
C000
C000
C000
E080
F1C0
7FC0
1F00
ENDCHAR
STARTCHAR d
ENCODING 100
SWIDTH 600 0
DWIDTH 14 0
BBX 11 18 1 0
BITMAP
0060
0060
0060
0060
0060
0060
1E60
7F60
70E0
E060
E060
E060
E060
E060
E060
70E0
7F60
1E60
ENDCHAR
STARTCHAR e
ENCODING 101
SWIDTH 600 0
DWIDTH 14 0
BBX 12 12 1 0
BITMAP
1F80
3FC0
70E0
6060
E070
FFF0
FFF0
E000
6040
70E0
3FE0
0F80
ENDCHAR
STARTCHAR f
ENCODING 102
SWIDTH 600 0
DWIDTH 14 0
BBX 12 18 1 0
BITMAP
03F0
07F0
0600
0600
0600
0600
FFF0
FFF0
0600
0600
0600
0600
0600
0600
0600
0600
7FE0
7FE0
ENDCHAR
STARTCHAR g
ENCODING 103
SWIDTH 600 0
DWIDTH 14 0
BBX 13 19 1 -5
BITMAP
0070
00F0
1F80
3FC0
70E0
60E0
60E0
70E0
3FC0
1F80
2000
6000
7FE0
3FF0
6030
E038
E070
7FF0
3FC0
ENDCHAR
STARTCHAR h
ENCODING 104
SWIDTH 600 0
DWIDTH 14 0
BBX 10 18 2 0
BITMAP
C000
C000
C000
C000
C000
C000
CF00
DF80
E1C0
E1C0
C0C0
C0C0
C0C0
C0C0
C0C0
C0C0
C0C0
C0C0
ENDCHAR
STARTCHAR i
ENCODING 105
SWIDTH 600 0
DWIDTH 14 0
BBX 11 18 2 0
BITMAP
0E00
0F00
0E00
0000
0000
0000
FE00
FE00
0E00
0E00
0E00
0E00
0E00
0E00
0E00
0E00
FFE0
FFE0
ENDCHAR
STARTCHAR j
ENCODING 106
SWIDTH 600 0
DWIDTH 14 0
BBX 9 23 2 -5
BITMAP
0700
0780
0700
0000
0000
0000
FF00
FF00
0300
0300
0300
0300
0300
0300
0300
0300
0300
0300
0300
0300
0300
FF00
FE00
ENDCHAR
STARTCHAR k
ENCODING 107
SWIDTH 600 0
DWIDTH 14 0
BBX 12 18 2 0
BITMAP
E000
E000
E000
E000
E000
E000
E0E0
E3C0
E780
EE00
FC00
FE00
FF00
E700
E380
E1C0
E1E0
E0F0
ENDCHAR
STARTCHAR l
ENCODING 108
SWIDTH 600 0
DWIDTH 14 0
BBX 10 18 2 0
BITMAP
FC00
FC00
0C00
0C00
0C00
0C00
0C00
0C00
0C00
0C00
0C00
0C00
0C00
0C00
0C00
0C00
FFC0
FFC0
ENDCHAR
STARTCHAR m
ENCODING 109
SWIDTH 600 0
DWIDTH 14 0
BBX 12 12 1 0
BITMAP
DCE0
FFF0
C630
C630
C630
C630
C630
C630
C630
C630
C630
C630
ENDCHAR
STARTCHAR n
ENCODING 110
SWIDTH 600 0
DWIDTH 14 0
BBX 10 12 2 0
BITMAP
CF00
DF80
E1C0
E1C0
C0C0
C0C0
C0C0
C0C0
C0C0
C0C0
C0C0
C0C0
ENDCHAR
STARTCHAR o
ENCODING 111
SWIDTH 600 0
DWIDTH 14 0
BBX 12 12 1 0
BITMAP
1F80
3FC0
70E0
6060
E070
E070
E070
E070
6060
70E0
3FC0
1F80
ENDCHAR
STARTCHAR p
ENCODING 112
SWIDTH 600 0
DWIDTH 14 0
BBX 11 17 2 -5
BITMAP
CF00
DFC0
E1C0
C0E0
C0E0
C0E0
C0E0
C0E0
C0E0
E1C0
DFC0
CF00
C000
C000
C000
C000
C000
ENDCHAR
STARTCHAR q
ENCODING 113
SWIDTH 600 0
DWIDTH 14 0
BBX 11 17 1 -5
BITMAP
1E60
7F60
70E0
E060
E060
E060
E060
E060
E060
70E0
7F60
1E60
0060
0060
0060
0060
0060
ENDCHAR
STARTCHAR r
ENCODING 114
SWIDTH 600 0
DWIDTH 14 0
BBX 11 12 2 0
BITMAP
FCE0
FDE0
1E00
1C00
1C00
1C00
1C00
1C00
1C00
1C00
FFC0
FFC0
ENDCHAR
STARTCHAR s
ENCODING 115
SWIDTH 600 0
DWIDTH 14 0
BBX 11 12 1 0
BITMAP
1F80
3FE0
7060
6000
7800
3FC0
1FE0
00E0
4060
60E0
FFE0
1F80
ENDCHAR
STARTCHAR t
ENCODING 116
SWIDTH 600 0
DWIDTH 14 0
BBX 11 17 1 0
BITMAP
0C00
0C00
0C00
0C00
0C00
FFE0
FFE0
0C00
0C00
0C00
0C00
0C00
0C00
0C00
0C00
0FE0
07E0
ENDCHAR
STARTCHAR u
ENCODING 117
SWIDTH 600 0
DWIDTH 14 0
BBX 10 12 2 0
BITMAP
C0C0
C0C0
C0C0
C0C0
C0C0
C0C0
C0C0
C0C0
E1C0
E1C0
7EC0
3CC0
ENDCHAR
STARTCHAR v
ENCODING 118
SWIDTH 600 0
DWIDTH 14 0
BBX 12 12 1 0
BITMAP
E070
6070
7060
70E0
30C0
38C0
39C0
1980
1D80
1F80
0F00
0F00
ENDCHAR
STARTCHAR w
ENCODING 119
SWIDTH 600 0
DWIDTH 14 0
BBX 14 12 0 0
BITMAP
E30C
E79C
6798
6798
6798
6498
64D8
6CD8
7CD0
3CF0
3CF0
3870
ENDCHAR
STARTCHAR x
ENCODING 120
SWIDTH 600 0
DWIDTH 14 0
BBX 12 12 1 0
BITMAP
E070
70E0
39C0
1D80
1F80
0F00
0F00
1F80
19C0
39C0
70E0
E070
ENDCHAR
STARTCHAR y
ENCODING 121
SWIDTH 600 0
DWIDTH 14 0
BBX 12 17 1 -5
BITMAP
E070
E070
6060
70E0
30C0
38C0
39C0
1980
1F80
0F00
0F00
0F00
0600
0E00
0C00
7C00
7800
ENDCHAR
STARTCHAR z
ENCODING 122
SWIDTH 600 0
DWIDTH 14 0
BBX 10 12 2 0
BITMAP
FFC0
FFC0
01C0
0380
0700
0E00
1C00
3800
7000
E000
FFC0
FFC0
ENDCHAR
STARTCHAR braceleft
ENCODING 123
SWIDTH 600 0
DWIDTH 14 0
BBX 10 21 2 -3
BITMAP
0FC0
1FC0
1800
1800
1800
0C00
0600
0600
0600
FC00
FC00
0600
0600
0600
0E00
0C00
1800
1800
1800
1FC0
0FC0
ENDCHAR
STARTCHAR bar
ENCODING 124
SWIDTH 600 0
DWIDTH 14 0
BBX 2 21 6 -3
BITMAP
C0
C0
C0
C0
C0
C0
C0
C0
C0
C0
C0
C0
C0
C0
C0
C0
C0
C0
C0
C0
C0
ENDCHAR
STARTCHAR braceright
ENCODING 125
SWIDTH 600 0
DWIDTH 14 0
BBX 10 21 2 -3
BITMAP
FC00
FE00
0600
0600
0600
0C00
1800
1800
1800
0FC0
0FC0
1800
1800
1800
1C00
0C00
0600
0600
0600
FE00
FC00
ENDCHAR
STARTCHAR asciitilde
ENCODING 126
SWIDTH 600 0
DWIDTH 14 0
BBX 12 4 1 5
BITMAP
3820
7E70
E7E0
41C0
ENDCHAR
STARTCHAR uni00A0
ENCODING 160
SWIDTH 600 0
DWIDTH 14 0
BBX 1 1 0 0
BITMAP
00
ENDCHAR
STARTCHAR exclamdown
ENCODING 161
SWIDTH 600 0
DWIDTH 14 0
BBX 4 18 5 -6
BITMAP
F0
F0
F0
F0
00
00
00
60
60
60
60
60
60
60
60
60
60
60
ENDCHAR
STARTCHAR cent
ENCODING 162
SWIDTH 600 0
DWIDTH 14 0
BBX 10 18 2 -3
BITMAP
0C00
0C00
0C00
1F00
7F80
EDC0
EC80
CC00
CC00
CC00
CC00
EC80
EDC0
7FC0
1F00
0C00
0C00
0C00
ENDCHAR
STARTCHAR sterling
ENCODING 163
SWIDTH 600 0
DWIDTH 14 0
BBX 12 17 1 0
BITMAP
0FC0
3FE0
3870
7020
7000
7000
7000
3000
FF80
FF80
3800
3800
3800
7000
7000
7FF0
7FF0
ENDCHAR
STARTCHAR yen
ENCODING 165
SWIDTH 600 0
DWIDTH 14 0
BBX 14 17 0 0
BITMAP
E01C
7038
7038
3030
3870
1860
1CE0
0CC0
0FC0
7FF8
7FF8
0300
0300
0300
0300
7FF8
7FF8
ENDCHAR
STARTCHAR brokenbar
ENCODING 166
SWIDTH 600 0
DWIDTH 14 0
BBX 2 21 6 -3
BITMAP
C0
C0
C0
C0
C0
C0
C0
C0
C0
00
00
00
00
C0
C0
C0
C0
C0
C0
C0
C0
ENDCHAR
STARTCHAR section
ENCODING 167
SWIDTH 600 0
DWIDTH 14 0
BBX 11 21 2 -4
BITMAP
1F00
7FC0
7180
E000
E000
7000
7E00
3F80
43C0
C0C0
C0E0
C0C0
F0C0
7F00
1F80
0380
01C0
01C0
6180
FF80
3E00
ENDCHAR
ENDFONT
